<svg width="589" height="279" viewBox="0 0 589 279" fill="none" xmlns="http://www.w3.org/2000/svg">
<path d="M321 46V82.5" stroke="black" stroke-width="5"/>
<path d="M281 32V97.5" stroke="black" stroke-width="5"/>
<path d="M80 32V97.5" stroke="black" stroke-width="5"/>
<path d="M153 98V32.5" stroke="black" stroke-width="5"/>
<path d="M362 98V32.5" stroke="black" stroke-width="5"/>
<path d="M241 98V32.5" stroke="black" stroke-width="5"/>
<path d="M450 98V32.5" stroke="black" stroke-width="5"/>
<path d="M89 6V124" stroke="black" stroke-width="5"/>
<path d="M290 6V124" stroke="black" stroke-width="5"/>
<path d="M162 124V6" stroke="black" stroke-width="5"/>
<path d="M371 124V6" stroke="black" stroke-width="5"/>
<path d="M232 124V6" stroke="black" stroke-width="5"/>
<path d="M441 124V6" stroke="black" stroke-width="5"/>
<path d="M99 10V120" stroke="black" stroke-width="5"/>
<path d="M300 10V120" stroke="black" stroke-width="5"/>
<path d="M172 120V10" stroke="black" stroke-width="5"/>
<path d="M203 116V6" stroke="black" stroke-width="5"/>
<path d="M381 120V10" stroke="black" stroke-width="5"/>
<path d="M222 120V10" stroke="black" stroke-width="5"/>
<path d="M431 120V10" stroke="black" stroke-width="5"/>
<path d="M109 10V120" stroke="black" stroke-width="5"/>
<path d="M310 10V120" stroke="black" stroke-width="5"/>
<path d="M182 120V10" stroke="black" stroke-width="5"/>
<path d="M391 120V10" stroke="black" stroke-width="5"/>
<path d="M212 120V10" stroke="black" stroke-width="5"/>
<path d="M421 120V10" stroke="black" stroke-width="5"/>
<path d="M118 47V83.5" stroke="black" stroke-width="5"/>
<path d="M72 47V83.5" stroke="black" stroke-width="5"/>
<path d="M273 47V83.5" stroke="black" stroke-width="5"/>
<path d="M145 83V46.5" stroke="black" stroke-width="5"/>
<path d="M354 83V46.5" stroke="black" stroke-width="5"/>
<path d="M249 83V46.5" stroke="black" stroke-width="5"/>
<path d="M458 83V46.5" stroke="black" stroke-width="5"/>
<path d="M64 54V76" stroke="black" stroke-width="5"/>
<path d="M265 54V76" stroke="black" stroke-width="5"/>
<path d="M137 76V54" stroke="black" stroke-width="5"/>
<path d="M342 75V53" stroke="black" stroke-width="5"/>
<path d="M331 76V54" stroke="black" stroke-width="5"/>
<path d="M257 76V54" stroke="black" stroke-width="5"/>
<path d="M496 102V36.5" stroke="black" stroke-width="5"/>
<path d="M487 128V10" stroke="black" stroke-width="5"/>
<path d="M504 87V50.5" stroke="black" stroke-width="5"/>
<path d="M520 58V80" stroke="black" stroke-width="5"/>
<path d="M512 80V58" stroke="black" stroke-width="5"/>
<path d="M466 76V54" stroke="black" stroke-width="5"/>
<path d="M128 0V130" stroke="black" stroke-width="5"/>
<path d="M476 6V136" stroke="black" stroke-width="5"/>
<path d="M193 130V0" stroke="black" stroke-width="5"/>
<path d="M402 130V0" stroke="black" stroke-width="5"/>
<path d="M458 130V0" stroke="black" stroke-width="5"/>
<path d="M410 130V0" stroke="black" stroke-width="5"/>
<path d="M0 165H588.5" stroke="black" stroke-width="6"/>
<circle cx="85" cy="165" r="20" fill="black"/>
<circle cx="291.5" cy="236.5" r="42.5" fill="#242424"/>
<path d="M326 237L277.25 268.177V205.823L326 237Z" fill="#D9D9D9"/>
<path d="M134 237L158.375 252.588V221.412L134 237Z" fill="black"/>
<path d="M449.5 237L425.125 252.588V221.412L449.5 237Z" fill="black"/>
<path d="M159 237L183.375 252.588V221.412L159 237Z" fill="black"/>
<path d="M424.5 237L400.125 252.588V221.412L424.5 237Z" fill="black"/>
</svg>
